HIERARCHY
ROOT hip
{
  OFFSET 0 0 0
  CHANNELS 6 Xposition Yposition Zposition Zrotation Yrotation Xrotation
  JOINT abdomen
  {
    OFFSET 0 20.6881 -0.73152
    CHANNELS 3 Zrotation Xrotation Yrotation
    JOINT chest
    {
      OFFSET 0 11.7043 -0.48768
      CHANNELS 3 Zrotation Xrotation Yrotation
      JOINT neck
      {
        OFFSET 0 22.1894 -2.19456
        CHANNELS 3 Zrotation Xrotation Yrotation
        JOINT head
        {
          OFFSET -0.24384 7.07133 1.2192
          CHANNELS 3 Zrotation Xrotation Yrotation
          JOINT leftEye
          {
            OFFSET 4.14528 8.04674 8.04672
            CHANNELS 3 Zrotation Xrotation Yrotation
            End Site
            {
              OFFSET 1 0 0
            }
          }
          JOINT rightEye
          {
            OFFSET -3.6576 8.04674 8.04672
            CHANNELS 3 Zrotation Xrotation Yrotation
            End Site
            {
              OFFSET 1 0 0
            }
          }
        }
      }
      JOINT rCollar
      {
        OFFSET -2.68224 19.2634 -4.8768
        CHANNELS 3 Zrotation Xrotation Yrotation
        JOINT rShldr
        {
          OFFSET -8.77824 -1.95073 1.46304
          CHANNELS 3 Zrotation Xrotation Yrotation
          JOINT rForeArm
          {
            OFFSET -28.1742 -1.7115 0.48768
            CHANNELS 3 Zrotation Xrotation Yrotation
            JOINT rHand
            {
              OFFSET -22.5879 0.773209 7.07136
              CHANNELS 3 Zrotation Xrotation Yrotation
              JOINT rThumb1
              {
                OFFSET -1.2192 -0.487915 3.41376
                CHANNELS 3 Zrotation Xrotation Yrotation
                JOINT rThumb2
                {
                  OFFSET -3.37035 -0.52449 3.41376
                  CHANNELS 3 Zrotation Xrotation Yrotation
                  End Site
                  {
                    OFFSET -1.78271 -1.18214 1.43049
                  }
                }
              }
              JOINT rIndex1
              {
                OFFSET -7.75947 0.938293 5.60832
                CHANNELS 3 Zrotation Xrotation Yrotation
                JOINT rIndex2
                {
                  OFFSET -2.54057 -0.884171 1.56538
                  CHANNELS 3 Zrotation Xrotation Yrotation
                  End Site
                  {
                    OFFSET -1.62519 -0.234802 1.16502
                  }
                }
              }
              JOINT rMid1
              {
                OFFSET -8.24714 1.18213 3.41376
                CHANNELS 3 Zrotation Xrotation Yrotation
                JOINT rMid2
                {
                  OFFSET -3.10165 -0.590103 1.0647
                  CHANNELS 3 Zrotation Xrotation Yrotation
                  End Site
                  {
                    OFFSET -2.48547 -0.328903 0.83742
                  }
                }
              }
              JOINT rRing1
              {
                OFFSET -8.82822 0.546677 1.51678
                CHANNELS 3 Zrotation Xrotation Yrotation
                JOINT rRing2
                {
                  OFFSET -2.60934 -0.819778 -0.0198488
                  CHANNELS 3 Zrotation Xrotation Yrotation
                  End Site
                  {
                    OFFSET -2.33842 -0.294052 0.168128
                  }
                }
              }
              JOINT rPinky1
              {
                OFFSET -8.27202 -0.0477905 -0.4584
                CHANNELS 3 Zrotation Xrotation Yrotation
                JOINT rPinky2
                {
                  OFFSET -1.82734 -0.647385 -0.700984
                  CHANNELS 3 Zrotation Xrotation Yrotation
                  End Site
                  {
                    OFFSET -1.69225 -0.51767 -0.607171
                  }
                }
              }
            }
          }
        }
      }
      JOINT lCollar
      {
        OFFSET 2.68224 19.2634 -4.8768
        CHANNELS 3 Zrotation Xrotation Yrotation
        JOINT lShldr
        {
          OFFSET 8.77824 -1.95073 1.46304
          CHANNELS 3 Zrotation Xrotation Yrotation
          JOINT lForeArm
          {
            OFFSET 28.1742 -1.7115 0.48768
            CHANNELS 3 Zrotation Xrotation Yrotation
            JOINT lHand
            {
              OFFSET 22.5879 0.773209 7.07136
              CHANNELS 3 Zrotation Xrotation Yrotation
              JOINT lThumb1
              {
                OFFSET 1.2192 -0.487915 3.41376
                CHANNELS 3 Zrotation Xrotation Yrotation
                JOINT lThumb2
                {
                  OFFSET 3.37035 -0.52449 3.41376
                  CHANNELS 3 Zrotation Xrotation Yrotation
                  End Site
                  {
                    OFFSET 1.78271 -1.18214 1.43049
                  }
                }
              }
              JOINT lIndex1
              {
                OFFSET 7.75947 0.938293 5.60832
                CHANNELS 3 Zrotation Xrotation Yrotation
                JOINT lIndex2
                {
                  OFFSET 2.54057 -0.884171 1.56538
                  CHANNELS 3 Zrotation Xrotation Yrotation
                  End Site
                  {
                    OFFSET 1.62519 -0.234802 1.16502
                  }
                }
              }
              JOINT lMid1
              {
                OFFSET 8.24714 1.18213 3.41376
                CHANNELS 3 Zrotation Xrotation Yrotation
                JOINT lMid2
                {
                  OFFSET 3.10165 -0.590103 1.0647
                  CHANNELS 3 Zrotation Xrotation Yrotation
                  End Site
                  {
                    OFFSET 2.48547 -0.328903 0.83742
                  }
                }
              }
              JOINT lRing1
              {
                OFFSET 8.82822 0.546677 1.51678
                CHANNELS 3 Zrotation Xrotation Yrotation
                JOINT lRing2
                {
                  OFFSET 2.60934 -0.819778 -0.0198488
                  CHANNELS 3 Zrotation Xrotation Yrotation
                  End Site
                  {
                    OFFSET 2.33842 -0.294052 0.168128
                  }
                }
              }
              JOINT lPinky1
              {
                OFFSET 8.27202 -0.0477905 -0.4584
                CHANNELS 3 Zrotation Xrotation Yrotation
                JOINT lPinky2
                {
                  OFFSET 1.82734 -0.647385 -0.700984
                  CHANNELS 3 Zrotation Xrotation Yrotation
                  End Site
                  {
                    OFFSET 1.69225 -0.51767 -0.607171
                  }
                }
              }
            }
          }
        }
      }
    }
  }
  JOINT rButtock
  {
    OFFSET -8.77824 4.35084 1.2192
    CHANNELS 3 Zrotation Xrotation Yrotation
    JOINT rThigh
    {
      OFFSET 0 -1.70687 -2.19456
      CHANNELS 3 Zrotation Xrotation Yrotation
      JOINT rShin
      {
        OFFSET 0 -36.8199 0.73152
        CHANNELS 3 Zrotation Xrotation Yrotation
        JOINT rFoot
        {
          OFFSET 0.73152 -45.1104 -5.12064
          CHANNELS 3 Zrotation Xrotation Yrotation
          End Site
          {
            OFFSET -1.1221 -3.69964 12.103
          }
        }
      }
    }
  }
  JOINT lButtock
  {
    OFFSET 8.77824 4.35084 1.2192
    CHANNELS 3 Zrotation Xrotation Yrotation
    JOINT lThigh
    {
      OFFSET 0 -1.70687 -2.19456
      CHANNELS 3 Zrotation Xrotation Yrotation
      JOINT lShin
      {
        OFFSET 0 -36.8199 0.73152
        CHANNELS 3 Zrotation Xrotation Yrotation
        JOINT lFoot
        {
          OFFSET -0.73152 -45.1104 -5.12064
          CHANNELS 3 Zrotation Xrotation Yrotation
          End Site
          {
            OFFSET 1.1221 -3.69964 12.103
          }
        }
      }
    }
  }
}
MOTION
Frames:	8
Frame Time:	0.03333
-11.1157 59.46979999999999 -7.653300000000001 34.290086 -81.214673 -25.166569 -10.866581 9.496652 61.964759 -7.062208 -10.136631 -68.263265 -8.303366 34.523601 -144.533893 33.900519 45.185113 98.116322 -0.00285 0.0 -0.002661 -0.001629 -0.0 0.002171 0.163096 -0.989916 -0.219757 44.989555 12.874965 32.165161 -78.230039 3.348313 34.071676 22.35428 -41.543868 14.388233 4.473625 -4.455736 -0.516677 -113.837903 2.188337 103.219054 -46.208375 39.653484 36.317634 -86.616844 49.859977 63.935475 7.904968 -24.807425 -3.01498 -171.173939 -28.544187 144.211483 -0.008913 3.557294 1.118305 -49.982553 77.897429 62.951426 -144.942881 11.341108 -141.615377 13.218936 32.205189 4.895492 130.418979 54.548193 -134.285771 55.595431 -12.54883 -46.797607 -126.55701 -53.755121 148.92378 19.189947 -15.944341 2.964691 -11.111195 -11.091658 0.63969 -15.474498 -37.693495 21.17643 -16.970095 -30.492969 5.897663 77.74261 49.192837 -63.306453 36.035849 51.722774 -29.833364 1.162733 12.655806 -2.268308 72.75623 -72.142788 89.772465 58.023197 -82.266501 83.928891 157.329181 57.246169 150.513157 -15.214067 41.783036 -6.325049 179.991132 75.748384 0.007296 147.524073 4.999196 2.453922 63.64612 74.629991 140.494901 -84.059604 73.195698 178.946109 179.999801 75.751152 -0.0 -144.180101 56.019066 -180.0 0.571831 -62.304621 136.867984 115.611618 51.910485 -25.668842
-13.086 60.19029999999999 -8.741 57.728663 -84.704763 -48.400315 -6.11317 9.938737 -54.975582 10.136734 -5.161459 49.131938 5.21646 19.026925 64.666303 -38.687438 -9.360559 -96.028238 -0.001092 -0.0 0.002298 -0.001421 0.0 -0.000563 -153.588686 -75.693173 -178.258258 23.703413 -6.563128 -36.690515 -30.803971 77.044316 95.064835 -6.541954 30.940073 2.122572 -7.759063 7.438819 1.682416 30.319761 -41.075262 -11.952841 159.639746 -69.973034 102.393819 174.25526 -53.672444 105.385285 -89.834609 60.701432 81.262978 -42.131555 58.436085 36.398783 -0.000321 -0.018557 -0.005518 10.28803 0.619939 0.011309 -157.330949 57.246512 -150.510786 -155.946291 36.138669 -146.285101 81.70764 68.337182 -84.818768 95.029402 8.1071 -70.23807 63.12741 17.491399 90.302245 167.556488 -26.925323 -154.015208 121.365436 30.329876 -71.957544 28.159228 -16.561772 -29.115403 -37.216065 -57.917735 0.643456 76.679879 51.394891 -63.89289 0.058985 0.167713 -0.03145 -2.884214 1.036938 -0.111953 145.121031 0.227133 179.198468 -9.090559 -11.263662 10.532931 -44.709234 86.379113 5.343074 81.378104 -53.495546 79.915992 -0.003437 -0.001195 -0.001719 -57.810157 -53.420315 -0.0 80.007028 14.41186 45.490685 168.7448 21.670396 166.31661 -0.0 0.000608 0.000751 15.760499 -10.893907 56.192079 57.357365 48.488393 33.39798 -22.40734 9.882082 -66.222311
-15.0056 60.8741 -9.9417 115.637337 -86.227493 -106.402518 -4.768572 8.666494 -107.736167 8.386374 4.07593 101.211056 1.009529 15.438545 34.915427 -24.279745 -27.59034 -64.485821 -3.5e-05 -0.0 0.000212 -3.5e-05 -0.0 0.000212 -159.220693 -48.028382 170.415633 9.201508 5.05505 -40.652607 132.011513 77.099452 -71.768418 -13.744395 47.012467 5.081558 -85.8297 38.631348 47.955196 178.799632 -43.984303 76.623106 -140.763884 1.380811 116.229114 2.408772 13.198248 -6.805841 -0.569966 1.648632 0.321147 -83.250674 64.350435 75.226176 -0.007492 3.557291 1.118288 11.124881 -44.465425 -5.508895 -145.398483 12.778022 -142.022858 -133.730272 -19.64596 -130.540268 147.670874 29.084501 -152.474947 -155.666316 76.147832 -135.142937 -60.407741 -53.971491 76.436223 124.82162 46.591969 -106.509809 4.166389 4.05762 -0.78241 -11.930575 -14.95257 6.097502 19.171729 24.113809 -13.381935 160.597051 -8.073133 -110.499293 36.037536 51.722463 -29.833205 17.869203 42.260211 -14.535924 -0.004971 1.770265 -0.557392 -7.304334 26.539534 -4.021082 13.277147 -25.41045 12.632501 84.832626 -53.782642 84.850288 179.99747 75.750695 0.001731 154.501271 6.872724 -180.0 -63.986729 -68.133778 -112.45263 -106.966787 -0.512878 179.709713 179.99747 75.750695 0.001731 -150.541391 59.131195 -25.567719 -43.187046 62.661724 6.911493 -138.351524 -76.709012 -37.352529
-17.0911 61.170100000000005 -11.2346 171.294338 -83.467233 -162.48993 -2.233051 12.411233 -52.969714 10.240678 -5.594381 48.028024 4.207892 17.41693 54.530986 -34.772487 -17.473114 -78.646163 -0.003416 -0.0 0.003365 0.001914 -0.0 -0.000582 2.530508 -18.881147 -3.794226 -128.554575 -30.066397 151.254873 -68.278791 -29.358611 -123.273565 61.778451 -65.225557 49.767048 -78.030369 38.689897 42.412716 -13.337752 -8.01533 29.9163 -140.684263 1.505904 116.183424 6.332908 5.89137 -8.430737 -161.153269 -8.160916 143.464234 -34.802383 54.913135 29.48749 -74.217247 -72.136194 -91.301548 -150.980164 0.155555 176.376609 -158.219542 60.369561 -150.795727 -24.603548 -39.212131 -25.083773 -4.239446 -44.742846 8.646556 -93.766568 4.850558 5.864935 -177.230262 -59.951587 -42.490425 153.177692 23.681722 -133.288254 7.758419 7.439044 -1.682747 -31.390938 -42.666926 12.158915 -19.569987 -35.039915 5.98557 175.780015 -37.448771 -107.097439 17.369696 35.632133 -12.9547 -2.794373 1.669528 -0.243404 -0.000818 2.665233 -0.836479 147.828828 46.802243 -162.201693 0.165769 -0.437104 0.155011 -38.193149 81.628907 1.440886 -0.0 -0.000373 -0.001725 -38.201962 -56.97146 -43.187964 18.236734 76.192817 -131.311047 121.668592 -76.465168 -136.187354 179.983508 75.750014 0.014552 -156.957507 51.878499 151.601047 94.924048 -64.537312 167.384997 -49.981277 68.77904 134.900739
-19.6997 61.248999999999995 -12.5981 -168.89808 -78.053346 177.015089 -0.072941 10.794812 -178.869348 -3.074916 8.014699 174.586993 -13.585039 27.357628 -94.553133 47.814919 17.19231 74.803003 -0.001457 -0.0 0.001466 -0.001457 -0.0 0.001466 3.54135 -62.053092 -13.039337 62.376239 24.29649 -5.856253 -175.812813 -15.373376 93.48738 158.493801 -35.166907 139.475053 -176.598497 -14.212977 89.691877 -11.517503 -49.321725 1.476808 -1.162505 1.860882 0.668003 178.073926 -38.212487 104.627841 -20.603575 39.533891 15.767561 168.051122 -64.098159 133.10642 -0.006103 3.475634 1.09249 -156.854386 -32.202486 175.642349 -12.00296 -23.63326 -11.401165 -3.014057 -14.354744 -5.338735 50.905905 -86.504089 72.596715 -103.104475 12.002714 40.255705 9.360277 59.718858 -114.652329 9.350365 -28.05988 7.006689 -6.463651 -6.452677 0.633702 106.320359 12.163061 -96.180929 108.426842 34.159337 -91.741999 76.951603 54.440072 -55.285075 -89.036315 -81.391726 -59.761215 176.830756 -42.206586 -142.641709 -0.004196 1.771203 -0.557692 155.554689 -1.105336 -171.982089 152.198014 37.329773 147.58467 -3.011646 3.009283 0.983375 -179.988673 75.749262 -0.009994 166.105242 13.567305 -133.479836 -78.890099 -21.196573 -114.396627 -65.096766 17.062195 -172.163187 -0.006174 0.001374 -0.003087 14.936965 -28.296398 86.05804 106.082561 11.606093 25.490884 -14.544659 4.213974 -110.174315
-22.8325 61.285599999999995 -13.980300000000002 -164.871313 -71.902971 172.52438 1.452642 12.70388 165.482672 -5.738895 6.953249 -168.594982 -5.411394 14.172319 -2.015302 10.854667 -34.400899 -2.137292 0.003233 0.0 0.001648 -0.003369 0.0 -0.002357 -143.620386 38.233474 148.080818 -46.724216 2.467756 -2.308155 170.652343 -17.473317 -135.698612 -14.48408 49.448771 5.754999 81.27597 -49.995479 32.240728 -35.717179 12.393912 -3.463567 -179.420375 -58.426603 117.04507 -9.370952 36.227908 4.723093 -8.416484 20.880467 5.645143 -176.391789 -42.257164 142.889075 -145.106103 3.760947 179.68756 -155.826207 1.217445 -179.395267 -148.241867 22.3967 -144.473502 10.588786 24.523728 3.765253 0.005763 0.033236 -0.008181 -72.963294 26.085281 -73.57141 -170.758828 -25.557665 -29.655182 161.472637 21.450809 -135.978066 166.630554 -4.305056 -89.772199 109.970599 11.102189 -49.067987 43.647256 38.805194 -34.058506 10.97138 23.608494 -4.868245 20.136398 39.007397 -15.359275 168.280539 -20.657252 -144.263438 0.021828 -1.725905 0.543391 -11.638918 -26.212984 3.148145 132.045617 -18.854343 129.578113 -11.349263 24.652205 -3.975027 0.008744 -0.001004 0.004372 -17.90855 -55.80378 -15.164385 54.837295 55.20027 20.774624 -170.509596 62.477327 95.511628 -0.000189 -0.00146 -9.4e-05 17.15658 -40.786412 -180.0 130.519995 -59.905589 -139.593412 10.77587 78.269477 76.458213
-26.4326 61.1159 -15.3782 -166.92325 -65.455345 174.224852 1.669077 18.572979 0.0 3.417856 -12.986938 -1.388276 2.884131 15.227944 44.997462 -25.88064 -25.641667 -52.593338 0.002408 -0.0 -8.4e-05 0.002408 -0.0 -8.4e-05 -0.088116 0.524847 0.11777 69.762126 -7.69964 50.961199 9.67513 28.355788 46.93834 -11.456177 44.973893 4.392744 96.572519 -51.19609 43.018409 -88.896099 37.782762 48.124694 -150.052511 -14.752057 120.687219 -5.28517 28.068194 -1.866129 -4.681304 12.536415 2.931964 -170.232854 -26.259348 144.299068 -70.378438 -72.130008 -87.280096 -150.974878 -0.760377 176.390477 -0.67136 -1.717548 -0.621533 -51.128405 -53.097546 -51.233823 153.591181 -75.693486 178.261287 -116.894387 13.663291 38.027114 -159.383065 -41.831322 -13.770248 161.775743 25.416177 -135.233154 156.955004 5.188961 -88.207593 2.277966 -44.799661 -15.288259 -88.79305 -75.497807 -40.050753 -20.688858 -7.131493 6.92394 166.117612 -24.039876 -145.07824 7.548989 26.104478 -6.433922 145.119627 0.267395 179.213233 155.513373 0.828307 179.332217 25.537442 -38.088106 24.597164 156.311458 46.143052 149.031257 0.005738 -0.000934 0.002869 -12.788485 -54.431852 -15.591567 35.028968 71.023878 -124.11309 -28.303907 -65.609365 60.567571 -179.9918 75.748499 -0.00846 -168.891895 22.358896 65.173643 111.657888 32.689167 166.609754 118.080984 -48.86122 -158.490724
-30.3624 60.783699999999996 -16.688 -169.797732 -58.021895 176.473013 0.133252 19.314207 -0.038833 3.265756 -13.224875 1.182341 -13.188349 27.545227 -105.135067 43.340882 28.684785 98.735337 -0.001301 0.0 -0.000528 -0.001157 -0.0 0.00228 -155.54848 -3.804357 161.899671 40.776678 49.951486 -77.003842 -53.837427 -64.489837 -136.256523 134.239398 -57.115041 119.802559 4.530715 -4.51416 -0.521434 -119.741901 -6.050735 108.292721 -2.687121 4.226627 1.583135 -152.474072 0.08417 109.247473 -170.280251 -36.723377 145.34092 3.02843 0.257732 0.368656 -0.016084 -1.323198 -0.415545 10.394901 0.623617 0.007361 -24.9894 -37.659967 -24.058569 -0.192138 -8.5968 -3.207056 158.897375 -36.946358 -168.197221 -101.432673 -0.666197 70.678197 -150.863869 -63.948533 0.274183 169.40562 15.117015 -139.726591 69.52293 38.078217 -36.391162 46.376537 2.397556 -47.001568 160.407721 -33.696553 -122.707064 -8.997397 7.921802 8.443255 -14.345633 -43.499416 2.87586 170.444173 -26.233894 -144.234561 145.120177 0.226552 179.199659 -12.001659 33.174408 5.241417 135.819052 -11.890562 133.183501 25.231073 -40.36706 26.989224 -179.646979 75.750027 -0.272091 174.036546 22.167726 -49.810606 -68.598423 50.875181 -16.319214 -94.939123 -79.657106 0.191709 179.991194 75.748505 0.009086 -168.72245 12.996052 -0.0 174.121753 75.653061 -75.298792 -39.058808 -67.387855 -133.111168
